<?xml version="1.0" encoding="UTF-8" standalone="no"?><svg height="715.525" width="715.524" xml:space="preserve" xmlns="http://www.w3.org/2000/svg"><path style="fill:#f2e839;fill-opacity:1;fill-rule:evenodd;stroke:none" d="M295.612 122.052c147.194 0 267.359 120.167 267.359 267.36S442.806 656.771 295.612 656.771c-147.194 0-267.36-120.166-267.36-267.359 0-147.193 120.166-267.36 267.36-267.36z" transform="matrix(1.33333 0 0 -1.33333 -36.387 876.979)"/><path style="fill:#231f20;fill-opacity:1;fill-rule:evenodd;stroke:none" d="M27.29 389.412c0-147.953 120.37-268.322 268.322-268.322s268.322 120.369 268.322 268.322c0 147.952-120.37 268.322-268.322 268.322-147.953 0-268.321-120.37-268.321-268.322m1.924 0c0 146.892 119.505 266.397 266.397 266.397S562.01 536.304 562.01 389.412 442.504 123.015 295.612 123.015 29.215 242.52 29.215 389.412z" transform="matrix(1.33333 0 0 -1.33333 -36.387 876.979)"/><path style="fill:#231f20;fill-opacity:1;fill-rule:evenodd;stroke:none" d="M295.612 138.407c138.184 0 251.004 112.82 251.004 251.005 0 138.184-112.82 251.005-251.004 251.005S44.608 527.596 44.608 389.412s112.82-251.005 251.004-251.005z" transform="matrix(1.33333 0 0 -1.33333 -36.387 876.979)"/><path style="fill:#fff;fill-opacity:1;fill-rule:evenodd;stroke:none" d="M295.612 146.723c133.61 0 242.689 109.079 242.689 242.69 0 133.609-109.078 242.687-242.689 242.687-133.61 0-242.689-109.078-242.689-242.688 0-133.61 109.078-242.69 242.69-242.69z" transform="matrix(1.33333 0 0 -1.33333 -36.387 876.979)"/><path style="fill:#0071bc;fill-opacity:1;fill-rule:evenodd;stroke:none" d="M295.612 165.71c123.215 0 223.7 100.485 223.7 223.702 0 123.215-100.485 223.7-223.7 223.7-123.216 0-223.7-100.485-223.7-223.7 0-123.217 100.484-223.701 223.7-223.701z" transform="matrix(1.33333 0 0 -1.33333 -36.387 876.979)"/><path style="fill:#fff;fill-opacity:1;fill-rule:evenodd;stroke:none" d="M449.611 561.548s-27.8-28.875-58.31-28.875c-46.383 0-81.502 12.193-100.717 14.758C271.37 549.997 230 552 206 532c-16.984-14.154-21.434-28.203-21.434-37.186 0-7.059-2.493-15.658-8.614-23.74-7.288-9.626-13.251-24.384-15.24-39.142-1.987-14.76-2.935-26.08-19.878-50.692-10.601-15.4-15.903-23.1-10.601-28.875 5.922-6.45 13.25-8.984 13.25-13.475 0-4.493-3.974-13.475-3.974-17.326 0-3.85 7.951-12.19 7.951-12.19s-4.304-2.589-3.977-5.135c.665-5.132 3.977-4.49 7.953-14.116 2.57-6.22-2.65-21.175 1.325-26.95 4.426-6.429 16.62-10.664 39.757-8.984 26.505 1.925 51.451 1.454 83.489-21.816 39.757-28.875 58.972-51.976 58.972-51.976s90.116 3.21 150.414 90.476c79.433 114.958 21.205 252.817-35.782 290.675z" transform="matrix(1.33333 0 0 -1.33333 -36.387 876.979)"/><path style="fill:#231f20;fill-opacity:1;fill-rule:evenodd;stroke:none" d="M203.959 492.248s37.858 14.118 71.867 14.118c34.008 0 68.016-15.4 102.666-15.4 63.528 0 82.775 45.557 82.775 45.557s-38.5-26.308-75.076-26.308c-25.665 0-80.2 17.968-111.65 17.968-59.032 0-70.582-35.935-70.582-35.935zM215.55 180.559c24.546-9.17 50.914-14.597 78.618-14.597 92.682 0 172.504 56.114 207.275 136.152h-16.916l-.23-.503c-33.84-71.037-103.237-109.342-155.213-114.636 0 0-45.719 46.32-77.481 59.555z" transform="matrix(1.33333 0 0 -1.33333 -36.387 876.979)"/><path style="fill:#231f20;fill-opacity:1;fill-rule:evenodd;stroke:none" d="M222.566 453.107s23.095 10.266 61.6 10.266c27.593 0 80.21-10.266 107.16-10.266 26.308 0 55.825 12.191 71.225 26.95 14.108 13.521 16.683 28.876 16.683 28.876s-37.858-37.86-82.133-37.86c-32.725 0-80.85 12.834-108.442 12.834-51.333 0-66.093-30.8-66.093-30.8z" transform="matrix(1.33333 0 0 -1.33333 -36.387 876.979)"/><path style="fill:#231f20;fill-opacity:1;fill-rule:evenodd;stroke:none" d="M246.95 421.022s28.234 2.568 45.559 2.568c17.325 0 42.992-10.267 91.117-10.267 45.559 0 69.035 8.9 83.095 18.609 26.95 18.608 28.555 40.425 28.555 40.425s-36.177-36.543-78.284-41.067c-38.82-4.17-81.492 7.7-109.725 7.7-52.616 0-60.316-17.968-60.316-17.968z" transform="matrix(1.33333 0 0 -1.33333 -36.387 876.979)"/><path style="fill:#231f20;fill-opacity:1;fill-rule:evenodd;stroke:none" d="M267.484 385.732s21.175 2.566 65.45-5.775c37.964-7.151 61.6-14.438 100.1-7.06 65.894 12.631 78.282 63.526 78.282 63.526s-34.006-33.365-73.79-42.99c-41.606-10.067-85.916.284-105.875 1.282-64.167 3.208-64.167-8.983-64.167-8.983z" transform="matrix(1.33333 0 0 -1.33333 -36.387 876.979)"/><path style="fill:#231f20;fill-opacity:1;fill-rule:evenodd;stroke:none" d="M300.209 355.573s59.745-34.052 136.675-17.967c70.583 14.758 78.926 62.884 78.926 62.884s-25.914-34.065-79.888-44.596c-52.616-10.266-135.713-.32-135.713-.32z" transform="matrix(1.33333 0 0 -1.33333 -36.387 876.979)"/><path style="fill:#231f20;fill-opacity:1;fill-rule:evenodd;stroke:none" d="M346.408 321.565s39.142-34.65 102.027-18.609c57 14.542 63.043 55.825 63.043 55.825s-26.95-35.612-72.668-42.991c-41.25-6.658-78.926 7.7-92.402 5.775z" transform="matrix(1.33333 0 0 -1.33333 -36.387 876.979)"/></svg>